<?xml version="1.0" encoding="UTF-8"?>
<svg xmlns="http://www.w3.org/2000/svg" viewBox="0 0 4392.9 4014.49">
  <defs>
    <style>
      .cls-1 {
        fill: #549ad8;
        mix-blend-mode: multiply;
      }

      .cls-2 {
        isolation: isolate;
      }
    </style>
  </defs>
  <g class="cls-2">
    <g id="Layer_2" data-name="Layer 2">
      <g id="_Layer_" data-name="&amp;lt;Layer&amp;gt;">
        <g>
          <path class="cls-1" d="M2058,1043.93c-422.28,0-764.6,237.03-764.6,529.34,0,152.85,93.7,290.47,243.36,387.06l-115.23,342.99,374.48-232.64c81.73,20.68,170.02,31.92,261.99,31.92,422.23,0,764.54-236.98,764.54-529.33s-342.31-529.34-764.54-529.34ZM1903.57,1650.08h-61.73c-14.62,0-26.46-11.85-26.46-26.44s11.85-26.47,26.46-26.47h61.73c14.62,0,26.47,11.83,26.47,26.47s-11.85,26.44-26.47,26.44ZM2088.84,1650.08h-61.77c-14.6,0-26.47-11.85-26.47-26.44s11.87-26.47,26.47-26.47h61.77c14.6,0,26.46,11.83,26.46,26.47s-11.86,26.44-26.46,26.44ZM2274.06,1650.08h-61.73c-14.62,0-26.47-11.85-26.47-26.44s11.85-26.47,26.47-26.47h61.73c14.62,0,26.44,11.83,26.44,26.47s-11.83,26.44-26.44,26.44Z"/>
          <path class="cls-1" d="M2652.27,2286.76h-937.05c-89.06,0-161.18,72.13-161.18,161.2v570.57c0,89.05,72.12,161.23,161.18,161.23h597.91l303.23,303.21v-303.21h35.91c89.07,0,161.21-72.18,161.21-161.23v-570.57c0-89.07-72.14-161.2-161.21-161.2ZM1977.13,2885.89h-78.07c-18.46,0-33.48-14.98-33.48-33.44s15.01-33.46,33.48-33.46h78.07c18.47,0,33.46,15,33.46,33.46s-14.99,33.44-33.46,33.44ZM2211.36,2885.89h-78.04c-18.5,0-33.48-14.98-33.48-33.44s14.98-33.46,33.48-33.46h78.04c18.5,0,33.46,15,33.46,33.46s-14.96,33.44-33.46,33.44ZM2445.62,2885.89h-78.12c-18.47,0-33.44-14.98-33.44-33.44s14.97-33.46,33.44-33.46h78.12c18.43,0,33.42,15,33.42,33.46s-14.99,33.44-33.42,33.44Z"/>
          <path class="cls-1" d="M3147.73,1823.12c-331.08,0-600.49,269.46-600.49,600.52s269.41,600.54,600.49,600.54c93.49,0,185.86-21.9,269.13-63.77l331.36,331.5v-868.27c0-331.06-269.37-600.52-600.49-600.52ZM3018.92,2523.91h-59.61c-14.62,0-26.46-11.85-26.46-26.45s11.85-26.46,26.46-26.46h59.61c14.62,0,26.46,11.85,26.46,26.46s-11.85,26.45-26.46,26.45ZM3197.61,2523.91h-59.6c-14.6,0-26.47-11.85-26.47-26.45s11.87-26.46,26.47-26.46h59.6c14.6,0,26.47,11.85,26.47,26.46s-11.87,26.45-26.47,26.45ZM3376.09,2523.91h-59.48c-14.59,0-26.44-11.85-26.44-26.45s11.85-26.46,26.44-26.46h59.48c14.6,0,26.46,11.85,26.46,26.46s-11.86,26.45-26.46,26.45Z"/>
          <path class="cls-1" d="M1595.95,1083.63c-195.96-196-514.89-196-710.96,0l-513.99,514.01,392.46-.08c24.51,74.07,66.2,141.68,121.6,197.1,196,195.93,514.87,196,710.89,0,196.04-196.13,196.04-515.06,0-711.04ZM1116.97,1497.52h-49.77c-14.6,0-26.45-11.86-26.45-26.47s11.85-26.46,26.45-26.46h49.77c14.59,0,26.46,11.82,26.46,26.46s-11.87,26.47-26.46,26.47ZM1266.51,1497.52h-49.9c-14.63,0-26.44-11.86-26.44-26.47s11.81-26.46,26.44-26.46h49.9c14.6,0,26.43,11.82,26.43,26.46s-11.83,26.47-26.43,26.47ZM1416.18,1497.43l-49.9.1h-.08c-14.58,0-26.45-11.86-26.45-26.42s11.81-26.49,26.42-26.51l49.89-.06h.08c14.6,0,26.45,11.82,26.45,26.41s-11.79,26.49-26.41,26.49Z"/>
          <path class="cls-1" d="M1202.61,1965.66c-334.04,0-604.72,270.78-604.72,604.72,0,273.82,182.21,504.93,431.87,579.31l172.85,404.16,172.75-404.16c249.75-74.38,431.86-305.49,431.86-579.31,0-333.94-270.66-604.72-604.62-604.72ZM1028.33,2763.29h-69.82c-14.61,0-26.46-11.85-26.46-26.45s11.85-26.47,26.46-26.47h69.82c14.6,0,26.45,11.86,26.45,26.47s-11.85,26.45-26.45,26.45ZM1237.54,2763.29h-69.8c-14.6,0-26.47-11.85-26.47-26.45s11.87-26.47,26.47-26.47h69.8c14.6,0,26.47,11.86,26.47,26.47s-11.87,26.45-26.47,26.45ZM1446.53,2763.29h-69.64c-14.59,0-26.46-11.85-26.46-26.45s11.87-26.47,26.46-26.47h69.64c14.64,0,26.44,11.86,26.44,26.47s-11.81,26.45-26.44,26.45Z"/>
          <path class="cls-1" d="M1972.34,3482.89c0,293.66,237.96,531.6,531.56,531.6,240.7,0,443.8-160.13,509.2-379.62l355.26-151.98-355.26-151.81c-65.4-219.48-268.49-379.64-509.2-379.64-293.6,0-531.56,237.94-531.56,531.45ZM2604.55,3621.79c0-14.63,11.88-26.5,26.44-26.5h52.48c14.6,0,26.47,11.86,26.47,26.5s-11.87,26.43-26.47,26.43h-52.48c-14.56,0-26.44-11.87-26.44-26.43ZM2447.04,3621.79c0-14.63,11.85-26.5,26.45-26.5h52.51c14.62,0,26.47,11.86,26.47,26.5s-11.85,26.43-26.47,26.43h-52.51c-14.6,0-26.45-11.87-26.45-26.43ZM2289.35,3621.79c0-14.63,11.85-26.5,26.46-26.5h52.58c14.61,0,26.45,11.86,26.45,26.5s-11.83,26.43-26.45,26.43h-52.58c-14.62,0-26.46-11.87-26.46-26.43Z"/>
          <path class="cls-1" d="M0,1775.56v802.16h239.42v253.42l253.4-253.42h709.73v-802.16H0ZM426.38,2265.25h-71.86c-14.62,0-26.47-11.85-26.47-26.48s11.85-26.46,26.47-26.46h71.86c14.62,0,26.47,11.87,26.47,26.46s-11.85,26.48-26.47,26.48ZM642.14,2265.25h-72.08c-14.61,0-26.46-11.85-26.46-26.48s11.85-26.46,26.46-26.46h72.08c14.61,0,26.46,11.87,26.46,26.46s-11.85,26.48-26.46,26.48ZM857.92,2265.25h-71.95c-14.6,0-26.45-11.85-26.45-26.48s11.85-26.46,26.45-26.46h71.95c14.62,0,26.46,11.87,26.46,26.46s-11.85,26.48-26.46,26.48Z"/>
          <path class="cls-1" d="M2785.02,936.65V224.85h-629.76L1930.43,0v224.85h-212.44v711.8h1067.04ZM2119.79,525.62c0,12.94-10.51,23.47-23.47,23.47h-63.74c-12.97,0-23.51-10.52-23.51-23.47s10.54-23.53,23.51-23.53h63.74c12.97,0,23.47,10.52,23.47,23.53ZM2311.23,525.62c0,12.94-10.5,23.47-23.47,23.47h-63.93c-12.96,0-23.51-10.52-23.51-23.47s10.54-23.53,23.51-23.53h63.93c12.97,0,23.47,10.52,23.47,23.53ZM2502.72,525.62c0,12.94-10.51,23.47-23.47,23.47h-63.86c-12.96,0-23.47-10.52-23.47-23.47s10.5-23.53,23.47-23.53h63.86c12.97,0,23.47,10.52,23.47,23.53Z"/>
          <path class="cls-1" d="M2958.08,569.44c-330.95,0-599.22,268.25-599.22,599.16,0,305.32,228.54,556.81,523.82,593.93l124.32,286.35,134.61-309.97c241.03-77.54,415.65-303.48,415.65-570.31,0-330.91-268.27-599.16-599.18-599.16ZM2833.33,1217.66h-49.75c-14.61,0-26.46-11.85-26.46-26.49s11.85-26.43,26.46-26.43h49.75c14.62,0,26.46,11.85,26.46,26.43s-11.85,26.49-26.46,26.49ZM2982.87,1217.66h-49.9c-14.6,0-26.47-11.85-26.47-26.49s11.87-26.43,26.47-26.43h49.9c14.6,0,26.47,11.85,26.47,26.43s-11.87,26.49-26.47,26.49ZM3132.56,1217.63l-49.88.04h-.08c-14.64,0-26.47-11.81-26.47-26.44s11.79-26.45,26.39-26.47l49.9-.06h.07c14.58,0,26.43,11.79,26.43,26.41s-11.75,26.48-26.37,26.53Z"/>
          <path class="cls-1" d="M3292.36,1309.17v1100.48h455.85l143.41,330.02,143.21-330.02h358.06v-1100.48h-1100.53ZM3717.97,1928.48h-49.76c-14.6,0-26.47-11.81-26.47-26.43s11.87-26.47,26.47-26.47h49.76c14.62,0,26.45,11.85,26.45,26.47s-11.83,26.43-26.45,26.43ZM3867.53,1928.48h-49.92c-14.59,0-26.46-11.81-26.46-26.43s11.87-26.47,26.46-26.47h49.92c14.59,0,26.46,11.85,26.46,26.47s-11.87,26.43-26.46,26.43ZM4017.21,1928.46l-49.9.02h-.07c-14.6,0-26.47-11.78-26.47-26.37s11.77-26.46,26.39-26.53l49.9-.08h.06c14.62,0,26.46,11.84,26.46,26.45s-11.77,26.46-26.37,26.51Z"/>
        </g>
      </g>
    </g>
  </g>
</svg>